<svg width="37" height="37" viewBox="0 0 37 37" fill="none" xmlns="http://www.w3.org/2000/svg">
<path d="M11.2043 17.629V14.6749H24.1695C24.5103 14.6749 24.7575 14.7042 24.922 14.7423C24.9773 14.755 25.0164 14.7672 25.0424 14.7765L25.0455 14.7849C25.0696 14.8525 25.1001 14.986 25.1001 15.2066V17.0971C25.1001 17.3352 25.0694 17.4774 25.0449 17.5499C25.0222 17.5563 24.9925 17.5636 24.9548 17.5712C24.7843 17.6054 24.5289 17.629 24.1695 17.629H11.2043Z" fill="white"/>
<path fill-rule="evenodd" clip-rule="evenodd" d="M5.39585 29.9166V9.7125H25.1086C26.307 9.7125 27.2335 9.83776 27.9381 10.0345C28.5973 10.2505 29.1342 10.5634 29.6243 11.0068C30.0881 11.4897 30.3974 12.0032 30.579 12.5821C30.7767 13.2123 30.9085 14.1003 30.9085 15.308V16.9959C30.9085 19.069 30.532 20.3808 29.9944 21.0926C29.4705 21.7858 28.5416 22.3292 26.9832 22.5712C26.5805 22.6337 26.2405 22.9035 26.0881 23.2814C25.9358 23.6594 25.9936 24.0896 26.2404 24.4139L30.4275 29.9166H26.8617L22.1283 23.0887C21.9123 22.7771 21.5572 22.5912 21.1781 22.5912H10.048C9.40944 22.5912 8.89177 23.1089 8.89177 23.7474V29.9166H5.39585ZM10.048 12.3624C9.40944 12.3624 8.89177 12.8801 8.89177 13.5187V18.7852C8.89177 19.4238 9.40944 19.9415 10.048 19.9415H24.1695C24.6101 19.9415 25.0327 19.9142 25.4099 19.8384C25.7249 19.7752 26.0909 19.6625 26.4135 19.4359C26.4608 19.4027 26.5072 19.367 26.5524 19.3286C27.2013 18.7776 27.4126 17.9305 27.4126 17.0971V15.2066C27.4126 14.3948 27.1953 13.5547 26.5527 13.0089C26.2191 12.7254 25.8125 12.5746 25.4426 12.4891C25.0594 12.4006 24.6284 12.3624 24.1695 12.3624H10.048Z" fill="white"/>
<path fill-rule="evenodd" clip-rule="evenodd" d="M4.81 0C2.15351 0 0 2.15351 0 4.81V32.19C0 34.8465 2.15351 37 4.81 37H32.19C34.8465 37 37 34.8465 37 32.19V4.81C37 2.15351 34.8465 0 32.19 0H4.81ZM34.0709 5.62708C34.0709 6.69141 33.2079 7.55417 32.1441 7.55417C31.0796 7.55417 30.2167 6.69141 30.2167 5.62708C30.2167 4.56276 31.0796 3.7 32.1441 3.7C33.2079 3.7 34.0709 4.56276 34.0709 5.62708ZM4.2396 7.4C3.60102 7.4 3.08335 7.91767 3.08335 8.55625V31.0729C3.08335 31.7114 3.60102 32.2291 4.2396 32.2291H10.048C10.6866 32.2291 11.2043 31.7114 11.2043 31.0729V24.9037H20.5727L25.3061 31.7316C25.5221 32.0432 25.8772 32.2291 26.2563 32.2291H32.7602C33.1996 32.2291 33.6011 31.9801 33.7962 31.5864C33.9914 31.1927 33.9465 30.7224 33.6804 30.3727L29.1387 24.404C30.247 23.9978 31.1693 23.3735 31.8396 22.4865C32.832 21.1729 33.221 19.2437 33.221 16.9959V15.308C33.221 13.9499 33.0749 12.8125 32.7855 11.8899C32.4829 10.9255 31.9646 10.0959 31.2587 9.37039C31.2433 9.3546 31.2275 9.33925 31.2113 9.32437C30.4607 8.63641 29.6195 8.14785 28.6294 7.82765C28.6158 7.82326 28.6022 7.81912 28.5885 7.81524C27.6259 7.54283 26.4718 7.4 25.1086 7.4H4.2396Z" fill="white"/>
</svg>
