<svg width="34" height="30" viewBox="0 0 34 30" fill="none" xmlns="http://www.w3.org/2000/svg">
<path d="M17 0.380005C7.61016 0.380005 0 6.5271 0 14.1136C0 17.3885 1.42109 20.3861 3.78516 22.7433C2.95508 26.071 0.179297 29.0356 0.146094 29.0686C0 29.2205 -0.0398437 29.445 0.0464844 29.6431C0.132812 29.8412 0.31875 29.96 0.53125 29.96C4.93398 29.96 8.23437 27.8603 9.86797 26.5662C12.0395 27.3784 14.45 27.8471 17 27.8471C26.3898 27.8471 34 21.7001 34 14.1136C34 6.5271 26.3898 0.380005 17 0.380005ZM8.5 16.2264C7.32461 16.2264 6.375 15.2822 6.375 14.1136C6.375 12.9449 7.32461 12.0007 8.5 12.0007C9.67539 12.0007 10.625 12.9449 10.625 14.1136C10.625 15.2822 9.67539 16.2264 8.5 16.2264ZM17 16.2264C15.8246 16.2264 14.875 15.2822 14.875 14.1136C14.875 12.9449 15.8246 12.0007 17 12.0007C18.1754 12.0007 19.125 12.9449 19.125 14.1136C19.125 15.2822 18.1754 16.2264 17 16.2264ZM25.5 16.2264C24.3246 16.2264 23.375 15.2822 23.375 14.1136C23.375 12.9449 24.3246 12.0007 25.5 12.0007C26.6754 12.0007 27.625 12.9449 27.625 14.1136C27.625 15.2822 26.6754 16.2264 25.5 16.2264Z" fill="white"/>
</svg>
