<svg width="32" height="34" viewBox="0 0 32 34" fill="none" xmlns="http://www.w3.org/2000/svg">
<path d="M26.1434 24.0321C24.8371 24.0321 23.6682 24.5442 22.7744 25.3464L10.5187 18.2631C10.6047 17.8705 10.6734 17.4779 10.6734 17.0683C10.6734 16.6586 10.6047 16.2661 10.5187 15.8735L22.6369 8.85843C23.5651 9.71185 24.7855 10.241 26.1434 10.241C28.9968 10.241 31.3001 7.95382 31.3001 5.12048C31.3001 2.28715 28.9968 0 26.1434 0C23.2901 0 20.9868 2.28715 20.9868 5.12048C20.9868 5.53012 21.0555 5.92269 21.1415 6.31526L9.02331 13.3303C8.09511 12.4769 6.8747 11.9478 5.51677 11.9478C2.66342 11.9478 0.360107 14.2349 0.360107 17.0683C0.360107 19.9016 2.66342 22.1888 5.51677 22.1888C6.8747 22.1888 8.09511 21.6596 9.02331 20.8062L21.2618 27.9066C21.1758 28.2651 21.1243 28.6406 21.1243 29.0161C21.1243 31.7641 23.376 34 26.1434 34C28.9108 34 31.1626 31.7641 31.1626 29.0161C31.1626 26.2681 28.9108 24.0321 26.1434 24.0321Z" fill="white"/>
</svg>
