<svg width="34" height="26" viewBox="0 0 34 26" fill="none" xmlns="http://www.w3.org/2000/svg">
<path d="M33.849 12.2222C33.654 11.7389 28.9263 0.420044 17 0.420044C5.07369 0.420044 0.345985 11.7389 0.151011 12.2222C-0.0503371 12.7217 -0.0503371 13.2789 0.151011 13.7784C0.345985 14.2612 5.07369 25.58 17 25.58C28.9263 25.58 33.654 14.2612 33.849 13.7779C34.0503 13.2784 34.0503 12.7217 33.849 12.2222ZM17 17.1934C14.6529 17.1934 12.7499 15.3158 12.7499 13C12.7499 10.6843 14.6529 8.80671 17 8.80671C19.3471 8.80671 21.2501 10.6843 21.2501 13C21.2501 15.3158 19.3471 17.1934 17 17.1934Z" fill="white"/>
</svg>
