<svg width="26" height="34" viewBox="0 0 26 34" fill="none" xmlns="http://www.w3.org/2000/svg">
<path d="M24.3135 34C24.0924 34 23.8751 33.9416 23.6836 33.8308L12.8301 27.5967L1.97654 33.8308C1.78402 33.9414 1.56589 33.9993 1.34399 33.9989C1.12209 33.9984 0.904209 33.9396 0.712159 33.8282C0.520108 33.7169 0.360632 33.5569 0.249701 33.3644C0.13877 33.1719 0.0802762 32.9536 0.0800781 32.7313V1.26866C0.0800781 0.932188 0.213518 0.6095 0.451044 0.371581C0.688569 0.133662 1.01072 0 1.34663 0H24.3135C24.6494 0 24.9716 0.133662 25.2091 0.371581C25.4466 0.6095 25.5801 0.932188 25.5801 1.26866V32.7313C25.5801 33.0678 25.4466 33.3905 25.2091 33.6284C24.9716 33.8663 24.6494 34 24.3135 34ZM12.8301 24.8657C13.0512 24.8657 13.2685 24.924 13.46 25.0348L23.047 30.5408V2.53731H2.61319V30.5408L12.2002 25.0348C12.3917 24.924 12.6089 24.8657 12.8301 24.8657Z" fill="white"/>
</svg>
