<svg width="37" height="37" viewBox="0 0 37 37" fill="none" xmlns="http://www.w3.org/2000/svg">
<path d="M20.3651 10.673C19.8705 10.1783 19.1995 9.90039 18.5 9.90039C17.8004 9.90039 17.1295 10.1783 16.6349 10.673C16.1402 11.1676 15.8623 11.8385 15.8623 12.5381C15.8623 13.2376 16.1402 13.9086 16.6349 14.4032C17.1295 14.8979 17.8004 15.1758 18.5 15.1758C19.1995 15.1758 19.8705 14.8979 20.3651 14.4032C20.8598 13.9086 21.1377 13.2376 21.1377 12.5381C21.1377 11.8385 20.8598 11.1676 20.3651 10.673Z" fill="white"/>
<path fill-rule="evenodd" clip-rule="evenodd" d="M5.55 0H31.45C34.5152 0 37 2.48482 37 5.55V31.45C37 34.5152 34.5152 37 31.45 37H5.55C2.48482 37 0 34.5152 0 31.45V5.55C0 2.48482 2.48482 0 5.55 0ZM24.8594 12.5381C24.8594 16.043 22.0121 18.8975 18.5 18.8975C14.9951 18.8975 12.1406 16.043 12.1406 12.5381C12.1406 9.0332 14.9951 6.17871 18.5 6.17871C22.0049 6.17871 24.8594 9.0332 24.8594 12.5381ZM24.7582 22.5758C23.6236 23.2851 22.3777 23.7981 21.0726 24.0934L21.051 24.0861L24.6137 27.6488C24.7869 27.822 24.9244 28.0276 25.0182 28.2539C25.112 28.4802 25.1602 28.7227 25.1602 28.9677C25.1602 29.2126 25.112 29.4552 25.0182 29.6815C24.9244 29.9078 24.7869 30.1134 24.6137 30.2865C24.4405 30.4598 24.2349 30.5973 24.0086 30.691C23.7823 30.7848 23.5398 30.8331 23.2948 30.8331C23.0499 30.8331 22.8073 30.7848 22.581 30.691C22.3547 30.5973 22.1491 30.4598 21.976 30.2865L18.4783 26.7889L14.9807 30.2938C14.6309 30.6435 14.1565 30.84 13.6618 30.84C13.1671 30.84 12.6927 30.6435 12.343 30.2938C11.9932 29.944 11.7967 29.4696 11.7967 28.9749C11.7967 28.4802 11.9932 28.0058 12.343 27.6561L15.884 24.0934C14.5832 23.8043 13.3474 23.2984 12.1984 22.5758C11.9915 22.4448 11.8125 22.2744 11.6714 22.0742C11.5304 21.8741 11.4302 21.6481 11.3765 21.4092C11.3228 21.1703 11.3167 20.9232 11.3586 20.6819C11.4004 20.4407 11.4893 20.21 11.6203 20.0031C11.7513 19.7962 11.9217 19.6172 12.1218 19.4761C12.322 19.3351 12.548 19.2349 12.7869 19.1812C13.0258 19.1275 13.2729 19.1214 13.5142 19.1633C13.7554 19.2051 13.9861 19.294 14.193 19.425C15.478 20.2281 16.9629 20.6539 18.4783 20.6539C19.9937 20.6539 21.4786 20.2281 22.7637 19.425C22.9705 19.294 23.2012 19.2051 23.4424 19.1633C23.6837 19.1214 23.9308 19.1275 24.1697 19.1812C24.4086 19.2349 24.6346 19.3351 24.8348 19.4761C25.0349 19.6172 25.2054 19.7962 25.3363 20.0031C25.4673 20.21 25.5562 20.4407 25.5981 20.6819C25.6399 20.9232 25.6338 21.1703 25.5801 21.4092C25.5264 21.6481 25.4262 21.8741 25.2852 22.0742C25.1441 22.2744 24.9651 22.4448 24.7582 22.5758Z" fill="white"/>
</svg>
