<svg width="37" height="37" viewBox="0 0 37 37" fill="none" xmlns="http://www.w3.org/2000/svg">
<path fill-rule="evenodd" clip-rule="evenodd" d="M4.81 0C2.15351 0 0 2.15351 0 4.81V32.19C0 34.8465 2.15351 37 4.81 37H32.19C34.8465 37 37 34.8465 37 32.19V4.81C37 2.15351 34.8465 0 32.19 0H4.81ZM31.2926 8.18716L26.9454 29.0971C26.8431 29.5908 26.2641 29.8145 25.8557 29.5177L19.9215 25.2094C19.5612 24.9478 19.07 24.9617 18.7251 25.2429L15.4349 27.9248C15.0531 28.2371 14.4777 28.0631 14.3315 27.5928L12.7476 22.4987C12.3056 21.0775 11.2307 19.941 9.83633 19.4205L6.1446 18.0427C5.54504 17.8181 5.53992 16.9717 6.13777 16.7414L30.3611 7.39667C30.8747 7.19809 31.4045 7.64794 31.2926 8.18716Z" fill="white"/>
<path fill-rule="evenodd" clip-rule="evenodd" d="M25.4989 11.9684L13.9635 19.0729C13.5214 19.3458 13.3133 19.8797 13.456 20.3796L14.7031 24.7619C14.7919 25.0724 15.2424 25.0407 15.2855 24.7199L15.6097 22.3167C15.6709 21.8642 15.8867 21.4471 16.2214 21.1358L25.7413 12.2865C25.9195 12.1214 25.7061 11.8411 25.4989 11.9684Z" fill="white"/>
</svg>
