<svg width="37" height="37" viewBox="0 0 37 37" fill="none" xmlns="http://www.w3.org/2000/svg">
<path d="M29.8704 26.3988H27.1822C26.1644 26.3988 25.8498 25.5895 24.0214 23.7365C22.4287 22.1943 21.7243 21.9871 21.3332 21.9871C20.7842 21.9871 20.6275 22.1437 20.6275 22.9012V25.3292C20.6275 25.983 20.419 26.3741 18.6955 26.3741C15.219 26.1409 12.2309 24.2447 10.4963 21.4812L10.4704 21.4381C8.45704 18.9373 6.97289 15.9234 6.23884 12.627L6.2117 12.4826C6.2117 12.0915 6.36838 11.7251 7.12587 11.7251H9.81411C10.4926 11.7251 10.7542 12.0385 11.017 12.7688C12.3469 16.6081 14.5676 19.9761 15.4817 19.9761C15.821 19.9761 15.9777 19.8194 15.9777 18.9583V14.987C15.8728 13.1587 14.9068 13.0032 14.9068 12.3506C14.9179 12.0015 15.2042 11.7226 15.5545 11.7226C15.5656 11.7226 15.5755 11.7226 15.5866 11.7239H15.5854H19.8157C20.3906 11.7239 20.5991 12.0372 20.5991 12.7158V18.0701C20.5991 18.6437 20.8607 18.8535 21.0174 18.8535C21.3566 18.8535 21.6453 18.6437 22.2708 18.0182C23.5711 16.4305 24.6827 14.6144 25.5303 12.6566L25.587 12.5085C25.7659 12.0607 26.1952 11.7498 26.6973 11.7498C26.7208 11.7498 26.743 11.751 26.7664 11.7523H26.7627H29.451C30.2603 11.7523 30.4441 12.168 30.2603 12.7442C29.182 15.119 27.9705 17.1596 26.5666 19.0496L26.6307 18.9583C26.3445 19.4284 26.2396 19.6369 26.6307 20.1612C26.9169 20.5523 27.8583 21.3616 28.485 22.0932C29.3918 22.9901 30.1517 24.0338 30.7254 25.1861L30.7562 25.2539C31.0178 26.0089 30.6255 26.4013 29.868 26.4013L29.8704 26.3988ZM24.1794 0H12.8206C2.45384 0 0 2.45384 0 12.8206V24.1794C0 34.5462 2.45384 37 12.8206 37H24.1794C34.5462 37 37 34.5462 37 24.1794V12.8206C37 2.45384 34.519 0 24.1794 0Z" fill="white"/>
</svg>
